<?xml version="1.0" encoding="UTF-8"?><svg version="1.1" width="95px" height="21px" viewBox="0 0 95.0 21.0" xmlns="http://www.w3.org/2000/svg" xmlns:xlink="http://www.w3.org/1999/xlink"><defs><clipPath id="i0"><path d="M1440,0 L1440,796 L0,796 L0,0 L1440,0 Z"></path></clipPath><clipPath id="i1"><path d="M66.8094701,0.000634009515 L66.8094701,8.15393788 L73.6956529,16.5006132 L70.268481,16.5316794 L65.4805018,10.6424073 L60.7205412,16.5063193 L57.3188409,16.4968092 L64.0241767,8.15393788 L64.0241767,0.000634009515 L66.8094701,0.000634009515 Z M15.1261678,0 C15.3149236,0.000167950184 15.495872,0.0750282099 15.6291632,0.208094489 C15.7624545,0.341160769 15.8371568,0.521519807 15.8368188,0.709451561 L15.8368188,14.6575608 L17.0849156,14.6658029 L16.2169789,16.4860311 L13.2451078,16.5031492 L13.2279146,2.71544326 C13.2268608,2.27975248 12.8714462,1.92730793 12.433845,1.9280091 L10.1796295,1.9280091 L10.1796295,7.20166237 L11.8626497,7.20166237 L11.8626497,9.12079538 L10.1796295,9.12079538 L10.1796295,16.4968092 L7.59747024,16.4968092 L7.59747024,9.12079538 L5.75079659,9.12079538 L5.75079659,7.20166237 L7.59747024,7.20166237 L7.59747024,1.9280091 L5.86159696,1.9280091 L5.86159696,0 L15.1261678,0 Z M2.99288493,5.6597623 C3.38427013,5.6597623 3.7018461,5.9751002 3.70289914,6.36477584 L3.72009226,14.6195205 L5.09299867,14.6283966 L4.25753807,16.4879331 L1.83775867,16.4942783 C1.64895155,16.4947785 1.46770356,16.4204565 1.33401722,16.2877104 C1.20033079,16.1549643 1.12519668,15.9747074 1.12519737,15.7867236 L1.12010308,7.57255531 L0,7.57255531 L0,5.6597623 L2.99288493,5.6597623 Z M26.0743957,0.0006308932 C26.2949262,0.000172958542 26.5031288,0.101854795 26.6377517,0.275765334 C26.7499374,0.420690775 26.8003913,0.602036731 26.781328,0.781265826 L26.7614856,0.888240961 L23.2286079,14.2239013 C23.1983243,14.3359893 23.2221125,14.4557245 23.2929761,14.5478922 C23.3496669,14.6216264 23.4313286,14.6710095 23.5214151,14.6878922 L23.5903012,14.6943331 L35.4682337,14.6943331 L34.438554,16.4879331 L20.783994,16.4784231 C20.5635752,16.4786867 20.3555571,16.376922 20.2210809,16.2030398 C20.1090175,16.0581381 20.0586369,15.8768764 20.0777044,15.6977371 L20.0975408,15.5908161 L23.558462,2.58230223 C23.602996,2.41341723 23.5664926,2.233519 23.4596013,2.09509241 C23.3740883,1.98435114 23.2512348,1.91013335 23.1157229,1.88459199 L23.0121012,1.87475269 L19.2550756,1.86714462 L19.2550756,0.0006308932 L26.0743957,0.0006308932 Z M53.6777098,0.000634009515 C54.0375401,0.0015943476 54.3345321,0.26799176 54.3818011,0.613423441 L54.3883608,0.709451561 L54.3883608,8.02903886 L48.0841989,8.02903886 L48.0841989,9.23998838 L54.3883608,9.23998838 L54.3883608,10.6550874 L48.0841989,10.6550874 L48.0841989,12.0866707 L54.3883608,12.0866707 L54.3883608,13.53981 L48.0841989,13.53981 L48.086746,14.684823 L54.390908,14.684823 L54.390908,16.4879331 L39.3519795,16.4879331 L39.3519795,14.684823 L45.3377494,14.684823 L45.3377494,13.5106458 L39.3519795,13.5385421 L39.3519795,12.0866707 L45.3377494,12.0866707 L45.3377494,10.6550874 L39.3099518,10.6550874 L41.2126624,8.02903886 L40.0148717,8.02903886 C39.8258362,8.02870335 39.6446959,7.95352808 39.5113862,7.82008665 C39.4047385,7.71333351 39.3357081,7.5763027 39.3127037,7.42939717 L39.3042116,7.31768532 L39.3042116,0.000634009515 L53.6777098,0.000634009515 Z M30.9286004,7.45906845 L35.4287531,12.3206185 L31.5615637,12.3206185 L27.0639581,7.45906845 L30.9286004,7.45906845 Z M45.3377494,8.02903886 L43.8667782,8.02903886 L42.9440782,9.23998838 L45.3377494,9.23998838 L45.3377494,8.02903886 Z M73.4587692,0.000634009515 L71.4637242,8.06010517 L68.7452935,8.06010517 L70.7479792,0.000634009515 L73.4587692,0.000634009515 Z M60.1773645,0.000634009515 L62.1704984,8.03284287 L59.4609824,8.03284287 L57.4678484,0.000634009515 L60.1773645,0.000634009515 Z M51.6374538,1.70040131 L42.0417552,1.70040131 L42.0417552,3.37988047 L50.8656715,3.37988047 L50.0760593,4.89578634 L42.0417552,4.89578634 L42.0417552,6.32863757 L51.6374538,6.32863757 L51.6374538,1.70040131 Z M32.2983228,0.000634009515 L35.800635,0.00190201882 L30.3796925,5.27365331 L26.3679531,5.28316338 L32.2983228,0.000634009515 Z M3.70417274,0 L3.70417274,1.97746149 L0,1.97746149 L0,0 L3.70417274,0 Z"></path></clipPath><clipPath id="i2"><path d="M7.39382277,0.000511818875 C8.87172056,0.23389856 11.8104695,1.60287857 11.2373452,4.51465388 L11.1862481,4.74168645 C10.8913488,5.74746068 10.4139765,6.69097437 9.77774514,7.52555511 C8.83601728,8.68951711 5.61798385,8.69765897 3.69854691,8.18081294 C1.61425038,7.62065222 0.1079438,6.31078794 0,6.21471382 C0.852636814,6.87576737 1.90251651,7.23451538 2.98317393,7.23407611 C5.6896193,7.23407611 7.88382221,5.03023435 7.88382221,2.31182629 C7.88498045,1.53194087 7.70058584,0.762872534 7.34573876,0.0676008769 C7.33767212,0.0521725987 7.33898249,0.0335427455 7.34913003,0.0193844003 C7.35927757,0.00522613527 7.37654598,-0.00206589565 7.39382277,0.000511818875 Z"></path></clipPath><clipPath id="i3"><path d="M0.0788317014,0.0130972928 L5.74784348,5.55706043 L6.16817007,5.96936481 C7.46228776,7.32264429 8.27777677,9.05924379 8.49092428,10.9157146 C8.49359206,10.9383026 8.47936771,10.9594689 8.45737889,10.9656314 C8.43539008,10.9717938 8.41216482,10.9611228 8.40260659,10.9404659 C7.68298131,9.39741835 6.41873054,8.94082225 4.89933984,8.600492 C3.74499546,8.3422318 2.98906181,7.96705439 2.65509026,7.7765346 L2.54755532,7.70854997 L2.43822135,7.64333358 C0.177905195,6.27320029 0.0124932709,3.96952283 0.000854207667,3.70324289 L0,0.0456647788 C0.000233724797,0.0271836868 0.0114971338,0.0106159328 0.028643288,0.00353241335 C0.0457893616,-0.00355110611 0.0655250126,0.000210101418 0.0788317014,0.0130972928 Z"></path></clipPath><clipPath id="i4"><path d="M6.56608511,0.00580383381 C6.58410053,0.015793949 6.59326622,0.0364767122 6.58853366,0.0564599337 C6.52736552,0.316999819 6.43021611,0.884651105 6.49367397,1.66138564 C6.56792622,2.5804401 6.86755202,3.7942303 7.71703697,5.14610664 C8.25054097,5.99579235 9.00124101,6.90051709 10.0496042,7.82152561 L10.2412045,7.98729412 L10.4391832,8.15306263 C10.9185297,8.64810602 11.1856387,9.30940214 11.1839954,9.99703368 C11.1839954,11.4593138 10.0038099,12.6444446 8.54820415,12.6444446 C7.95215197,12.6451149 7.37383074,12.4426089 6.90942113,12.0706055 C6.89226749,12.0565238 6.8875414,12.0323145 6.89814833,12.0128606 C6.90875527,11.9934069 6.93172054,11.9841643 6.95292575,11.9908152 C7.04489701,12.0207555 7.14106942,12.0359265 7.23783194,12.0357583 C7.64372915,12.0312798 8.00055136,11.7670473 8.12162781,11.3812936 C8.23059654,11.0341154 8.12629638,10.6596009 7.86296582,10.4177376 L7.76937335,10.342249 C7.19669547,9.89234692 6.66074871,9.39794302 6.16657156,8.86368518 C5.54246018,8.18269905 5.0832084,7.51897364 4.74956394,6.88846712 C3.91318201,7.9206596 3.52776884,9.24382815 3.67971225,10.5613932 C3.83165567,11.8789583 4.50824745,13.0807216 5.55783398,13.8973158 C5.67199272,14.0002291 7.17829931,15.308465 9.26259584,15.8686257 C11.1833411,16.3835177 14.4013746,16.3753758 15.3398314,15.215322 C13.7775904,17.2631655 11.3164718,18.583777 8.54983966,18.583777 C3.82778936,18.583777 0,14.7408137 0,9.99703368 C-0.00456457492,7.78697569 0.84601321,5.66007273 2.37512757,4.05802694 L2.80592144,3.63660367 L6.5110104,0.0134708546 C6.52558281,-0.00105585699 6.54806968,-0.00418628143 6.56608511,0.00580383381 Z"></path></clipPath></defs><g transform="translate(-15.0 -16.0)"><g clip-path="url(#i0)"><g transform="translate(15.277390743354218 15.96071355647744)"><g transform="translate(20.786356535706517 1.9841602766877884)"><g clip-path="url(#i1)"><polygon points="0,0 73.6956529,0 73.6956529,16.5316794 0,16.5316794 0,0" stroke="none" fill="#1B2443"></polygon></g></g><g transform="translate(5.565684439784576 9.601430373138584)"><g clip-path="url(#i2)"><polygon points="0,3.88578059e-16 11.3104611,3.88578059e-16 11.3104611,8.50892237 0,8.50892237 0,3.88578059e-16" stroke="none" fill="#1652D8"></polygon></g></g><g transform="translate(8.551148103931212 0.0)"><g clip-path="url(#i3)"><polygon points="0,-4.33680869e-19 8.49124492,-4.33680869e-19 8.49124492,10.9673679 0,10.9673679 0,-4.33680869e-19" stroke="none" fill="#EA0100"></polygon></g></g><g transform="translate(0.0 1.9162229921250855)"><g clip-path="url(#i4)"><polygon points="-1.82769339e-05,-1.40512602e-16 15.3398314,-1.40512602e-16 15.3398314,18.583777 -1.82769339e-05,18.583777 -1.82769339e-05,-1.40512602e-16" stroke="none" fill="#3CC8F9"></polygon></g></g></g></g></g></svg>